<?xml version="1.0" standalone="no"?>
<!DOCTYPE svg PUBLIC "-//W3C//DTD SVG 20010904//EN"
 "http://www.w3.org/TR/2001/REC-SVG-20010904/DTD/svg10.dtd">
<svg version="1.0" xmlns="http://www.w3.org/2000/svg"
 width="500.000000pt" height="500.000000pt" viewBox="0 0 500.000000 500.000000"
 preserveAspectRatio="xMidYMid meet">
<metadata>
Created by potrace 1.14, written by Peter Selinger 2001-2017
</metadata>
<g transform="translate(0.000000,500.000000) scale(0.100000,-0.100000)"
fill="#000000" stroke="none">
<path d="M1505 3985 c-352 -64 -629 -381 -675 -775 -38 -325 180 -757 643
-1276 253 -284 723 -718 1014 -937 13 -10 63 27 238 172 512 427 952 892 1187
1256 126 194 209 374 244 530 28 122 24 275 -10 390 -105 354 -336 580 -654
641 -406 78 -824 -181 -972 -601 l-18 -50 -13 35 c-32 90 -114 233 -176 309
-199 245 -505 362 -808 306z m440 -310 c102 -21 238 -92 318 -166 85 -77 145
-161 202 -281 24 -51 44 -86 45 -77 1 32 89 196 139 259 95 119 205 197 348
247 69 24 93 27 213 27 123 1 142 -2 217 -27 228 -79 381 -254 459 -526 23
-82 26 -106 22 -200 -10 -217 -124 -462 -356 -760 -221 -283 -612 -669 -970
-956 -63 -50 -76 -56 -95 -48 -32 15 -273 218 -439 370 -661 604 -999 1139
-949 1500 25 180 102 336 225 458 167 166 386 229 621 180z"/>
<path d="M392 2647 c-50 -51 -92 -97 -92 -103 0 -5 178 -187 395 -404 l396
-394 -396 -396 -395 -395 100 -100 99 -99 493 490 c271 269 494 494 496 499 3
12 -979 995 -994 995 -5 0 -51 -42 -102 -93z"/>
<path d="M4003 2248 c-272 -271 -492 -497 -491 -503 2 -5 225 -230 496 -499
l493 -490 99 99 100 100 -396 396 -396 396 401 398 402 399 -98 98 c-54 54
-102 98 -107 98 -6 0 -232 -222 -503 -492z"/>
<path d="M382 2248 l-52 -53 222 -223 223 -224 -222 -217 -223 -217 58 -57 57
-57 275 275 275 275 -275 275 c-151 151 -277 275 -280 275 -3 0 -29 -24 -58
-52z"/>
<path d="M4280 2025 l-275 -275 275 -275 275 -275 52 52 c29 29 53 56 53 61 0
5 -98 105 -217 222 l-218 214 223 223 222 223 -53 53 c-29 28 -55 52 -57 52
-3 0 -129 -124 -280 -275z"/>
</g>
</svg>
